<svg xmlns="http://www.w3.org/2000/svg" width="17" height="17" fill="none"><path fill="#fff" d="M3.001 0h14v14l-3 3h-14V3l3-3Z"/><path fill="#052424" d="M3.353 4.957A1.06 1.06 0 0 1 3 4.15c0-.321.117-.603.352-.822C3.587 3.11 3.89 3 4.26 3s.66.11.895.327c.234.218.351.492.351.822 0 .329-.117.59-.351.808-.235.218-.533.328-.895.328s-.673-.11-.907-.328Zm1.956 1.25v6.684H3.198V6.208h2.11ZM12.337 6.87c.46.5.69 1.186.69 2.06v3.846h-2.005V9.2c0-.44-.114-.782-.342-1.026-.228-.243-.535-.366-.92-.366-.384 0-.692.122-.92.366-.227.244-.342.586-.342 1.026v3.576H6.481V6.192h2.017v.873c.204-.291.48-.521.826-.69a2.62 2.62 0 0 1 1.167-.254c.771 0 1.387.25 1.846.75Z"/></svg>