<svg xmlns="http://www.w3.org/2000/svg" width="64" height="64" viewBox="0 0 78 40">
  <path fill="#000000" d="M33.55,8.05c3.37,0,6.16,1.22,8.37,3.66,2.01,2.22,3.02,4.85,3.02,7.9s-1.06,5.72-3.19,8.01c-2.13,2.28-4.86,3.43-8.2,3.43s-6.1-1.14-8.22-3.43c-2.13-2.28-3.19-4.95-3.19-8.01s1.01-5.65,3.02-7.88c2.21-2.45,5.01-3.68,8.39-3.68ZM33.54,10.8c-2.34,0-4.35.86-6.03,2.59-1.68,1.73-2.52,3.82-2.52,6.27,0,1.58.38,3.05,1.15,4.42.77,1.37,1.8,2.42,3.1,3.16s2.74,1.11,4.29,1.11,2.99-.37,4.29-1.11,2.34-1.8,3.11-3.16c.77-1.37,1.15-2.84,1.15-4.42,0-2.45-.84-4.54-2.53-6.27-1.69-1.73-3.69-2.59-6.02-2.59Z"/>
  <path fill="#000000" d="M19.97,9.12h2.81v17.42c0,3.07-.27,5.31-.8,6.73-.74,2.01-2.02,3.56-3.84,4.64-1.82,1.08-4.01,1.63-6.57,1.63-1.87,0-3.56-.27-5.05-.8-1.49-.53-2.71-1.24-3.65-2.14-.94-.89-1.8-2.2-2.59-3.92h3.05c.83,1.45,1.9,2.52,3.22,3.21,1.31.7,2.94,1.04,4.89,1.04s3.54-.36,4.86-1.07c1.32-.71,2.26-1.61,2.83-2.69.56-1.08.84-2.83.84-5.24v-1.13c-1.06,1.34-2.35,2.37-3.88,3.08-1.53.72-3.15,1.07-4.87,1.07-2.01,0-3.9-.5-5.67-1.5-1.77-1-3.14-2.34-4.1-4.03-.96-1.69-1.45-3.54-1.45-5.56s.5-3.91,1.51-5.66c1.01-1.75,2.4-3.13,4.17-4.15,1.78-1.02,3.65-1.53,5.62-1.53,1.64,0,3.16.34,4.57,1.01,1.41.68,2.78,1.79,4.09,3.35v-3.8ZM11.67,11.27c-1.59,0-3.07.39-4.44,1.16-1.37.77-2.44,1.83-3.21,3.19-.78,1.36-1.17,2.83-1.17,4.41,0,2.4.8,4.38,2.41,5.95s3.69,2.35,6.25,2.35,4.66-.78,6.24-2.33c1.57-1.55,2.36-3.6,2.36-6.13,0-1.65-.36-3.12-1.08-4.41-.72-1.29-1.75-2.31-3.07-3.06-1.33-.75-2.75-1.13-4.28-1.13Z"/>
  <path fill="#000000" d="M44.72,9.36l16.05.18-12.59,19.23,11.97.13-.03,2.49-16.81-.19,12.58-19.25-11.2-.12.03-2.47Z"/>
  <path fill="#000000" d="M58.53,9.52l2.81.03-.11,10.21c-.03,2.49.09,4.21.35,5.15.39,1.34,1.14,2.41,2.27,3.2,1.12.79,2.47,1.19,4.04,1.21,1.57.02,2.91-.35,4.01-1.09,1.1-.74,1.87-1.73,2.3-2.96.29-.84.45-2.63.48-5.36l.11-10.21,2.87.03-.12,10.73c-.03,3.01-.41,5.28-1.13,6.8-.72,1.52-1.79,2.7-3.21,3.55-1.42.85-3.2,1.26-5.33,1.24-2.13-.02-3.9-.48-5.32-1.35s-2.47-2.1-3.15-3.65c-.69-1.55-1.01-3.89-.98-6.99l.12-10.53Z"/>
  <line stroke="#000000" stroke-miterlimit="10" stroke-width="2" x1="49.78" y1=".64" x2="54.67" y2="6.51"/>
</svg>
